<svg width="257" height="54" viewBox="0 0 257 54" fill="none" xmlns="http://www.w3.org/2000/svg">
	<!-- Brand icon -->
	<path d="M22 7V13.06C28.78 14.03 34 19.85 34 26.9C34 28.69 33.65 30.4 33.04 31.97L38.24 35.04C39.35 32.55 40 29.81 40 26.9C40 16.53 32.11 8.01 22 7ZM20 40.9C12.27 40.9 6 34.63 6 26.9C6 19.85 11.22 14.03 18 13.06V7C7.88 8 0 16.53 0 26.9C0 37.95 8.94 46.9 19.99 46.9C26.61 46.9 32.46 43.67 36.1 38.72L30.91 35.66C28.35 38.85 24.42 40.9 20 40.9Z" fill="url(#paint0_linear)"/>
	<!-- Wordmark: ZA-Resume -->
	<text x="58" y="36" fill="#18181B" font-family="Arial, Helvetica, sans-serif" font-size="24" font-weight="700" letter-spacing="0.5">
		ZA-Resume
	</text>
	<defs>
		<linearGradient id="paint0_linear" x1="40" y1="7" x2="-7.20049" y2="19.3253" gradientUnits="userSpaceOnUse">
			<stop stop-color="#4FC5EB"/>
			<stop offset="1" stop-color="#5D52D9"/>
		</linearGradient>
	</defs>
</svg>
